<svg id="Layer_1" data-name="Layer 1" xmlns="http://www.w3.org/2000/svg" viewBox="0 0 228.85 64.8">
  <title>infinity-logo</title>
  <g>
    <path d="M343.62,276.12l0.23-.31A0.33,0.33,0,0,1,343.62,276.12Z" transform="translate(-280.69 -221.83)" fill="#e6f9fb"/>
    <g>
      <path d="M364.09,225.77V226a2.83,2.83,0,0,0-1.2.17,1.07,1.07,0,0,0-.78.65,9.87,9.87,0,0,0-.12,2v21a8.77,8.77,0,0,0,.14,2.09,1.26,1.26,0,0,0,.54.63,2.86,2.86,0,0,0,1.42.25v0.28H356.8v-0.28a2,2,0,0,0,1.71-.53,5.37,5.37,0,0,0,.33-2.4V229.12a5.64,5.64,0,0,0-.37-2.55,1.72,1.72,0,0,0-1.67-.53v-0.28h7.29Z" transform="translate(-280.69 -221.83)" fill="#c2a26f"/>
      <path d="M389.27,225.77h5.29V226a2.42,2.42,0,0,0-1.67.51,3,3,0,0,0-.46,2v24.88l-21.8-23.21v20.21a5,5,0,0,0,.15,1.43,1.08,1.08,0,0,0,.43.63,4.87,4.87,0,0,0,1.39.33v0.28h-5.25v-0.28a2.13,2.13,0,0,0,1.75-.5,5.11,5.11,0,0,0,.34-2.39V231.44a9.93,9.93,0,0,0-.68-4q-0.68-1.54-3.13-1.43v-0.28h5.14l20.48,21.81V228.29a2.22,2.22,0,0,0-.56-1.9,2.69,2.69,0,0,0-1.43-.34v-0.28Z" transform="translate(-280.69 -221.83)" fill="#c2a26f"/>
      <path d="M397.21,226v-0.28H414.5V229h-0.28v-0.13a0.15,0.15,0,0,1,0-.11,2.5,2.5,0,0,0-1-1.73,5,5,0,0,0-2-.32h-8.81v12h8.21a4.18,4.18,0,0,0,1.44-.17,0.81,0.81,0,0,0,.44-0.74h0.28v2.62h-0.28a1,1,0,0,0-1.22-.95h-8.87v10.9a2.85,2.85,0,0,0,.47,2,2.35,2.35,0,0,0,1.62.44v0.28h-7.18v-0.28a1.91,1.91,0,0,0,1.6-.48,2.36,2.36,0,0,0,.33-1.35V228.51a3.46,3.46,0,0,0-.39-1.92A1.79,1.79,0,0,0,397.21,226Z" transform="translate(-280.69 -221.83)" fill="#c2a26f"/>
      <path d="M423.43,225.77V226a2.83,2.83,0,0,0-1.2.17,1.07,1.07,0,0,0-.78.65,9.87,9.87,0,0,0-.12,2v21a8.77,8.77,0,0,0,.14,2.09,1.26,1.26,0,0,0,.54.63,2.86,2.86,0,0,0,1.42.25v0.28h-7.29v-0.28a2,2,0,0,0,1.71-.53,5.37,5.37,0,0,0,.33-2.4V229.12a5.64,5.64,0,0,0-.37-2.55,1.72,1.72,0,0,0-1.67-.53v-0.28h7.29Z" transform="translate(-280.69 -221.83)" fill="#c2a26f"/>
      <path d="M448.61,225.77h5.29V226a2.42,2.42,0,0,0-1.67.51,3,3,0,0,0-.46,2v24.88L430,230.22v20.21a5,5,0,0,0,.15,1.43,1.08,1.08,0,0,0,.43.63,4.87,4.87,0,0,0,1.39.33v0.28h-5.25v-0.28a2.13,2.13,0,0,0,1.75-.5,5.11,5.11,0,0,0,.34-2.39V231.44a9.93,9.93,0,0,0-.68-4q-0.68-1.54-3.13-1.43v-0.28h5.14l20.48,21.81V228.29a2.22,2.22,0,0,0-.56-1.9,2.69,2.69,0,0,0-1.43-.34v-0.28Z" transform="translate(-280.69 -221.83)" fill="#c2a26f"/>
      <path d="M463.77,225.77V226a2.83,2.83,0,0,0-1.2.17,1.07,1.07,0,0,0-.78.65,9.87,9.87,0,0,0-.12,2v21a8.77,8.77,0,0,0,.14,2.09,1.26,1.26,0,0,0,.54.63,2.86,2.86,0,0,0,1.42.25v0.28h-7.29v-0.28a2,2,0,0,0,1.71-.53,5.37,5.37,0,0,0,.33-2.4V229.12a5.64,5.64,0,0,0-.37-2.55,1.72,1.72,0,0,0-1.67-.53v-0.28h7.29Z" transform="translate(-280.69 -221.83)" fill="#c2a26f"/>
      <path d="M488,224.82l-1.3,3.3h-0.28a3.45,3.45,0,0,0,.07-0.8,0.52,0.52,0,0,0-.31-0.55,2.87,2.87,0,0,0-1-.12h-7.13V250a5.62,5.62,0,0,0,.23,2,1.13,1.13,0,0,0,.63.67,4.29,4.29,0,0,0,1.29.14v0.28h-7.4v-0.28a2.53,2.53,0,0,0,1.74-.54,3.28,3.28,0,0,0,.35-1.85V226.66h-6.83a4.7,4.7,0,0,0-1.35.12,0.57,0.57,0,0,0-.31.6,2.9,2.9,0,0,0,.15.74h-0.28l-1.3-3.3h0.28a1.63,1.63,0,0,0,.66.81,4.36,4.36,0,0,0,1.4.14h18.14a6.07,6.07,0,0,0,1.55-.14,1.12,1.12,0,0,0,.69-0.81H488Z" transform="translate(-280.69 -221.83)" fill="#c2a26f"/>
      <path d="M505.44,225.77h4.1V226a2.75,2.75,0,0,0-1.28.37,4.45,4.45,0,0,0-1.15,1.3l-6.68,10.13v12.51a3.38,3.38,0,0,0,.39,2,2.22,2.22,0,0,0,1.7.47v0.28h-7.31v-0.28q2.1,0.13,2.1-1.65l0-.78V238.84l-6.7-11.09q-1.06-1.76-2.36-1.71v-0.28h6.46V226q-0.9,0-.9.69a2.46,2.46,0,0,0,.46,1.09l5.51,9.1,6-9.17a2,2,0,0,0,.37-0.55,1.55,1.55,0,0,0,.2-0.55q0-.61-0.8-0.61h-0.11v-0.28Z" transform="translate(-280.69 -221.83)" fill="#c2a26f"/>
    </g>
    <g>
      <path d="M368.66,266.38l0.54,1.52h-0.14a6.74,6.74,0,0,0-4.92-2.08,6.55,6.55,0,0,0-4.75,1.75,5.66,5.66,0,0,0-1.81,4.23,9.59,9.59,0,0,0,.81,3.53,7.49,7.49,0,0,0,2.54,3.28,6.89,6.89,0,0,0,4.21,1.28,9.93,9.93,0,0,0,3.18-.52,5.17,5.17,0,0,0,2.32-1.4l0.13,0-1,1.54q-2.44.53-3.17,0.63a15.38,15.38,0,0,1-1.95.1q-4.52,0-6.47-2.09a7.11,7.11,0,0,1-1.95-5,7.78,7.78,0,0,1,1-3.79,7.22,7.22,0,0,1,2.89-2.87,9.58,9.58,0,0,1,6.4-.83,11.54,11.54,0,0,1,1.47.45l0.64,0.24Z" transform="translate(-280.69 -221.83)" fill="#c2a26f"/>
      <path d="M379.58,265.44a6.87,6.87,0,0,1,5,1.84,6.1,6.1,0,0,1,1.92,4.59,8.49,8.49,0,0,1-2.23,6,7.64,7.64,0,0,1-5.91,2.42,6.59,6.59,0,0,1-6.8-6.64,8.83,8.83,0,0,1,.92-3.79A7.64,7.64,0,0,1,379.58,265.44Zm-0.06,14.06a6,6,0,0,0,2.93-.8,5.92,5.92,0,0,0,2.28-2.19,5.55,5.55,0,0,0,.83-2.87,6.79,6.79,0,0,0-1.12-3.8,7.94,7.94,0,0,0-2.9-2.68,7,7,0,0,0-3.3-1,5.59,5.59,0,0,0-3.88,1.61,5.23,5.23,0,0,0-1.74,4,7.69,7.69,0,0,0,2.13,5.37A6.37,6.37,0,0,0,379.52,279.51Z" transform="translate(-280.69 -221.83)" fill="#c2a26f"/>
      <path d="M388.1,265.81v-0.15h4.08q1.55,0,2.25.07a3.85,3.85,0,0,1,1.42.45,2.64,2.64,0,0,1,1.1,1,3.26,3.26,0,0,1,.37,1.62,3.71,3.71,0,0,1-.66,2.09,5.36,5.36,0,0,1-1.86,1.68l1,1.56q0.33,0.59,1.76,2.57a9,9,0,0,0,2.21,2.42,3.11,3.11,0,0,0,1.51.43A3.36,3.36,0,0,0,403,279l0.06,0.2a4.65,4.65,0,0,1-3,1,3.27,3.27,0,0,1-2.15-.74,23.34,23.34,0,0,1-3.12-4.06,0.06,0.06,0,0,1,0,0l-1.45-2.23-1.28,0h-1.16v5.5a1.93,1.93,0,0,0,.17,1,0.93,0.93,0,0,0,.84.29V280H388.1V279.9a1.07,1.07,0,0,0,.86-0.29,2.22,2.22,0,0,0,.17-1.07V267.1a2.5,2.5,0,0,0-.15-0.92A0.87,0.87,0,0,0,388.1,265.81Zm2.7,0.23v6.75h1.51a3.65,3.65,0,0,0,2.64-.84,2.94,2.94,0,0,0,.86-2.21,4.26,4.26,0,0,0-.85-2.51,3.42,3.42,0,0,0-3-1.19h-1.18Z" transform="translate(-280.69 -221.83)" fill="#c2a26f"/>
      <path d="M404.16,265.81v-0.15h4.1a7.63,7.63,0,0,1,3.18.49,3.42,3.42,0,0,1,1.45,1.22,3.59,3.59,0,0,1,.45,1.92,3.18,3.18,0,0,1-1.26,2.75,5.51,5.51,0,0,1-3.42.88v-0.15a3,3,0,0,0,2.22-.84,3,3,0,0,0,.85-2.21,4.15,4.15,0,0,0-.42-1.89,2.91,2.91,0,0,0-1.17-1.25,4.76,4.76,0,0,0-2.29-.43h-1v12.31a1.93,1.93,0,0,0,.23,1.24,1.42,1.42,0,0,0,.89.2V280h-3.8V279.9a0.86,0.86,0,0,0,1-.93V267.06a1.78,1.78,0,0,0-.2-1A1,1,0,0,0,404.16,265.81Z" transform="translate(-280.69 -221.83)" fill="#c2a26f"/>
      <path d="M422.89,265.44a6.87,6.87,0,0,1,5,1.84,6.1,6.1,0,0,1,1.92,4.59,8.49,8.49,0,0,1-2.23,6,7.64,7.64,0,0,1-5.91,2.42,6.59,6.59,0,0,1-6.8-6.64,8.83,8.83,0,0,1,.92-3.79A7.64,7.64,0,0,1,422.89,265.44Zm-0.06,14.06a6,6,0,0,0,2.93-.8,5.92,5.92,0,0,0,2.28-2.19,5.55,5.55,0,0,0,.83-2.87,6.79,6.79,0,0,0-1.12-3.8,7.94,7.94,0,0,0-2.9-2.68,7,7,0,0,0-3.3-1,5.59,5.59,0,0,0-3.88,1.61,5.23,5.23,0,0,0-1.74,4,7.69,7.69,0,0,0,2.13,5.37A6.37,6.37,0,0,0,422.83,279.51Z" transform="translate(-280.69 -221.83)" fill="#c2a26f"/>
      <path d="M431.41,265.81v-0.15h4.08q1.55,0,2.25.07a3.85,3.85,0,0,1,1.42.45,2.64,2.64,0,0,1,1.1,1,3.26,3.26,0,0,1,.37,1.62,3.71,3.71,0,0,1-.66,2.09,5.36,5.36,0,0,1-1.86,1.68l1,1.56q0.33,0.59,1.76,2.57a9,9,0,0,0,2.21,2.42,3.11,3.11,0,0,0,1.51.43,3.36,3.36,0,0,0,1.66-.56l0.06,0.2a4.65,4.65,0,0,1-3,1,3.27,3.27,0,0,1-2.15-.74,23.34,23.34,0,0,1-3.12-4.06,0.06,0.06,0,0,1,0,0l-1.45-2.23-1.28,0h-1.16v5.5a1.93,1.93,0,0,0,.17,1,0.93,0.93,0,0,0,.84.29V280h-3.71V279.9a1.07,1.07,0,0,0,.86-0.29,2.22,2.22,0,0,0,.17-1.07V267.1a2.5,2.5,0,0,0-.15-0.92A0.87,0.87,0,0,0,431.41,265.81Zm2.7,0.23v6.75h1.51a3.65,3.65,0,0,0,2.64-.84,2.94,2.94,0,0,0,.86-2.21,4.26,4.26,0,0,0-.85-2.51,3.42,3.42,0,0,0-3-1.19h-1.18Z" transform="translate(-280.69 -221.83)" fill="#c2a26f"/>
      <path d="M455.05,273.42h-4.22l-2.18,5.43a3.18,3.18,0,0,0-.22.72q0,0.32.48,0.32V280h-2.14V279.9a1.2,1.2,0,0,0,.72-0.21,2.64,2.64,0,0,0,.64-1.09l5.21-13.15h0.26l5.13,12.7a5.51,5.51,0,0,0,.39.92,1.28,1.28,0,0,0,1.2.83V280H457V279.9a0.37,0.37,0,0,0,.46-0.36,2.37,2.37,0,0,0-.22-0.78,0.32,0.32,0,0,1-.07-0.13,0.21,0.21,0,0,0,0-.1ZM451,273h3.89l-1.94-4.9Z" transform="translate(-280.69 -221.83)" fill="#c2a26f"/>
      <path d="M471,265.16l-0.68,1.74h-0.15a1.78,1.78,0,0,0,0-.42,0.27,0.27,0,0,0-.16-0.29,1.5,1.5,0,0,0-.51-0.06h-3.75v12.31a3,3,0,0,0,.12,1,0.59,0.59,0,0,0,.33.35,2.25,2.25,0,0,0,.68.07V280H463V279.9a1.33,1.33,0,0,0,.92-0.28,1.72,1.72,0,0,0,.19-1V266.13h-3.6a2.46,2.46,0,0,0-.71.06,0.3,0.3,0,0,0-.17.32,1.56,1.56,0,0,0,.08.39h-0.15l-0.68-1.74H459a0.86,0.86,0,0,0,.35.42,2.3,2.3,0,0,0,.74.07h9.54a3.2,3.2,0,0,0,.81-0.07,0.59,0.59,0,0,0,.37-0.42H471Z" transform="translate(-280.69 -221.83)" fill="#c2a26f"/>
      <path d="M475.67,265.66v0.15a1.5,1.5,0,0,0-.63.09,0.56,0.56,0,0,0-.41.34,5.26,5.26,0,0,0-.06,1.06v11a4.58,4.58,0,0,0,.07,1.1,0.66,0.66,0,0,0,.28.33,1.5,1.5,0,0,0,.75.13V280h-3.84V279.9a1,1,0,0,0,.9-0.28,2.83,2.83,0,0,0,.18-1.26V267.43a3,3,0,0,0-.2-1.34,0.9,0.9,0,0,0-.88-0.28v-0.15h3.84Z" transform="translate(-280.69 -221.83)" fill="#c2a26f"/>
      <path d="M485.27,265.44a6.87,6.87,0,0,1,5,1.84,6.1,6.1,0,0,1,1.92,4.59,8.49,8.49,0,0,1-2.23,6,7.64,7.64,0,0,1-5.91,2.42,6.59,6.59,0,0,1-6.8-6.64,8.83,8.83,0,0,1,.92-3.79A7.64,7.64,0,0,1,485.27,265.44Zm-0.06,14.06a6,6,0,0,0,2.93-.8,5.92,5.92,0,0,0,2.28-2.19,5.55,5.55,0,0,0,.83-2.87,6.79,6.79,0,0,0-1.12-3.8,7.94,7.94,0,0,0-2.9-2.68,7,7,0,0,0-3.3-1,5.59,5.59,0,0,0-3.88,1.61,5.23,5.23,0,0,0-1.74,4,7.69,7.69,0,0,0,2.13,5.37A6.37,6.37,0,0,0,485.21,279.51Z" transform="translate(-280.69 -221.83)" fill="#c2a26f"/>
      <path d="M505.59,265.66h2.78v0.15a1.28,1.28,0,0,0-.88.27,1.57,1.57,0,0,0-.24,1v13.1L495.77,268v10.64a2.67,2.67,0,0,0,.08.75,0.57,0.57,0,0,0,.22.33,2.56,2.56,0,0,0,.73.18V280H494V279.9a1.12,1.12,0,0,0,.92-0.26,2.69,2.69,0,0,0,.18-1.26v-9.73a5.23,5.23,0,0,0-.36-2.09,1.52,1.52,0,0,0-1.65-.75v-0.15h2.71l10.78,11.48V267a1.17,1.17,0,0,0-.29-1,1.41,1.41,0,0,0-.75-0.18v-0.15Z" transform="translate(-280.69 -221.83)" fill="#c2a26f"/>
    </g>
    <g>
      <path d="M314.55,228.72l0,23.7H312V234.54c-1-.48-2.23-1.09-2.91-1.45l0,0c0-.55,0-1.05,0-1.66C309.72,231.15,313.74,229.16,314.55,228.72Z" transform="translate(-280.69 -221.83)" fill="#c2a26f"/>
      <path d="M309.11,233.09c0,0.64-.06,18.85-0.06,19.3h-2.76a1.4,1.4,0,0,1-.77-1q0-6.93.06-13.85c0-.81,0-1.62,0-2.5,1.16-.7,2.41-1.31,3.56-1.93Z" transform="translate(-280.69 -221.83)" fill="#c2a26f"/>
      <path d="M331.78,247c0,0.55,0,1.1,0,1.59L315.88,240c0-.51,0-1.05,0-1.6C316.63,238.86,330.16,246.25,331.78,247Z" transform="translate(-280.69 -221.83)" fill="#c2a26f"/>
      <path d="M305.52,251.4a1.71,1.71,0,0,1,.77,1h-8v-1h7.23Z" transform="translate(-280.69 -221.83)" fill="#c2a26f"/>
      <path d="M314.52,228.74v-2.93c1.66-.92,4.85-2.75,6.91-4v18.1a19.58,19.58,0,0,1-3.34-1.69v-7.77C317.31,230.06,315.47,229.2,314.52,228.74Z" transform="translate(-280.69 -221.83)" fill="#c2a26f"/>
      <path d="M334.58,259.92c4.73,1.8,7.28,5.2,7.44,9.78,0.18,5-2.66,8.7-7.46,10.31a12.76,12.76,0,0,1-9.49-.58h0a0.46,0.46,0,0,0,.14.36,12.34,12.34,0,0,0,9.12,2.12,13.57,13.57,0,0,0,9.28-5.79h0a0.92,0.92,0,0,0,.23-0.31A23.85,23.85,0,0,0,345.3,272a13.4,13.4,0,0,0-6.4-14.89,15.52,15.52,0,0,0-9.11-1.91c-3.39.27-10.33,3-14.87,7.47a32.45,32.45,0,0,1,8.54-3.38A18.51,18.51,0,0,1,334.58,259.92Z" transform="translate(-280.69 -221.83)" fill="#c2a26f"/>
      <g>
        <polygon points="42.39 18.91 41.59 18.43 41.59 0.63 42.39 1.11 42.39 18.91" fill="#c2a26f"/>
        <polygon points="43.99 19.88 43.19 19.39 43.19 1.59 43.99 2.08 43.99 19.88" fill="#c2a26f"/>
        <polygon points="45.59 20.84 44.79 20.35 44.79 2.56 45.59 3.04 45.59 20.84" fill="#c2a26f"/>
      </g>
      <path d="M333.32,252.39H318v-10.1l10.48,5.63v3.42h4.89C333.32,251.72,333.32,252,333.32,252.39Zm-12.27-6.81v2.27h1.42v-1.49Zm1.8,1v1.29h1.49v-0.48Zm0,1.68v1.89h1.49v-1.89h-1.49Zm-1.8,0v1.89h1.42v-1.89h-1.42Z" transform="translate(-280.69 -221.83)" fill="#c2a26f"/>
      <path d="M320,281.56a76.3,76.3,0,0,1-7.05-8.79,44.76,44.76,0,0,0-8.44-9.08,15.78,15.78,0,0,0-5.54-2.85,11.79,11.79,0,0,0-6.29,0c0.47,0,.94.06,1.41,0a12.35,12.35,0,0,1,8.17,2.78,42.06,42.06,0,0,1,6.87,7,104.59,104.59,0,0,0,8.07,9.44,18.4,18.4,0,0,0,5.3,3.94A23.41,23.41,0,0,0,320,281.56Z" transform="translate(-280.69 -221.83)" fill="#c2a26f"/>
      <path d="M343.59,277.91a20.21,20.21,0,0,1-6,4.08c-5.31,2.13-10,1-14.27-2.66a34.26,34.26,0,0,1-4.12-4.68h0c-0.12-.1-0.24-0.2-0.35-0.3-0.68-.88-1.36-1.76-2-2.65a101.38,101.38,0,0,0-7.19-9.21c-3.93-4.15-8.51-7-14.38-7.36-5.41-.31-10.11,2-12.66,6.88a16.65,16.65,0,0,0-1.76,10c0.53,4.38,2.38,8.1,6.11,10.54,6.13,4,12.39,3.34,18.61.07a34.89,34.89,0,0,0,7.21-5.21c-0.35.26-6.23,3.64-10.39,4.36a18.19,18.19,0,0,1-8.24-.44,11.9,11.9,0,0,1-5.57-2.9c-2.83-2.75-4.36-6-3.6-10a9.33,9.33,0,0,1,5.88-7.5A11.88,11.88,0,0,1,301,260.7a21.74,21.74,0,0,1,7.29,5.37,106.41,106.41,0,0,1,7.6,9.53,37.79,37.79,0,0,0,7.44,8c0.75,0.55,1.55,1.05,2.32,1.58a14.71,14.71,0,0,0,8.58,1.33c4.65-.72,8.09-3,10-7.31a26.38,26.38,0,0,0,1.41-4A16.78,16.78,0,0,1,343.59,277.91Z" transform="translate(-280.69 -221.83)" fill="#c2a26f"/>
    </g>
    <line x1="76.06" y1="38.6" x2="227.36" y2="38.6" fill="#c2a26f" stroke="#c2a26f" stroke-miterlimit="10" stroke-width="0.75"/>
  </g>
</svg>
